<svg id="Capa_1" data-name="Capa 1" xmlns="http://www.w3.org/2000/svg" viewBox="0 0 372.21 234.23"><path d="M4.3,213.3c3.76-4.35,8.42-8,12.8-11.74,6-5.08,12.08-10,18.21-14.94,15-12,30.37-23.35,45.78-34.71,12.42-9.15,24.93-18.19,37.7-26.87,13.67-9.29,27.6-18.26,42.11-26.2,11.64-6.37,24.15-12.91,37.33-15.32,4.08-.75,8.67-1.14,12.6.47a10.79,10.79,0,0,1,6.34,7.94c.93,4.09.19,8.56-.77,12.57a68.59,68.59,0,0,1-6.3,16.19c-6,11.32-15,21.82-26.64,27.55a38.75,38.75,0,0,1-19.13,4c-8.05-.43-15.72-3.49-22.52-7.71a32.87,32.87,0,0,1-10.24-9.36,35.15,35.15,0,0,1-5.12-12.28A41.17,41.17,0,0,1,129,97.94c4.39-10.06,10.13-19.63,16-28.87a243.41,243.41,0,0,1,29-37.9c10-10.46,21.88-20.84,36-25,11.23-3.28,24.18-1.66,33,6.34,4.65,4.19,8.16,9.48,11.27,14.87,4.12,7.13,7.64,14.61,11.18,22,6.8,14.3,13.92,28.42,21,42.57,5.21,10.36,10.37,20.75,15.61,31.1,6.86,13.52,13.83,27,21,40.34,7.12,13.17,14.44,26.25,22.33,39,5.94,9.56,12.11,19.32,19.78,27.62a30.56,30.56,0,0,0,7.6,6.42c1.28.69,2.41-1.25,1.14-1.94-3.1-1.68-5.64-4.36-8-7a133.22,133.22,0,0,1-9.81-12.75c-8.12-11.75-15.35-24.12-22.36-36.56-7.76-13.79-15.18-27.78-22.44-41.84-6.25-12.11-12.37-24.29-18.46-36.48C287.4,88.63,281.53,77.45,276,66.1c-4.42-9.07-8.63-18.25-13.09-27.3C259.56,32,256.1,25.2,251.71,19A41.92,41.92,0,0,0,239.43,7a35.26,35.26,0,0,0-16.55-4.6c-14.22-.66-27,6.61-37.77,15.32C172.37,28.11,161.72,41,152.2,54.31a287.28,287.28,0,0,0-21.71,35.27,67.62,67.62,0,0,0-5.82,13.89,42.72,42.72,0,0,0,1.79,26.91c3.67,8.7,10.51,14.42,18.76,18.65a46.58,46.58,0,0,0,22,5.49c13.6-.26,25.67-7.78,34.49-17.73,8.12-9.16,14.46-20.65,17.11-32.66,1.67-7.57,2-17.8-6.18-21.8-3.93-1.93-8.51-1.91-12.75-1.33a73.66,73.66,0,0,0-17,4.83c-14.65,5.78-28.43,13.75-41.78,22-14.17,8.77-27.94,18.19-41.5,27.86-17.08,12.19-33.9,24.76-50.62,37.44q-17.16,13-33.6,26.95C11,203.77,6.42,207.41,2.7,211.7c-.94,1.09.65,2.69,1.6,1.6Z" transform="translate(-2.42 -2.39)"/></svg>