<svg id="Capa_1" data-name="Capa 1" xmlns="http://www.w3.org/2000/svg" viewBox="0 0 198.5 139"><defs><style>.cls-1{fill:#fff;}</style></defs><circle cx="135.5" cy="69" r="62.5"/><path d="M136,7A62,62,0,1,1,74,69,62.07,62.07,0,0,1,136,7m0-1a63,63,0,1,0,63,63A63,63,0,0,0,136,6Z" transform="translate(-0.5)"/><circle cx="69.5" cy="69.5" r="69"/><path d="M70,1A68.5,68.5,0,1,1,1.5,69.5,68.58,68.58,0,0,1,70,1m0-1a69.5,69.5,0,1,0,69.5,69.5A69.5,69.5,0,0,0,70,0Z" transform="translate(-0.5)"/><circle class="cls-1" cx="69.5" cy="69.5" r="48"/><path d="M70,22A47.5,47.5,0,1,1,22.5,69.5,47.56,47.56,0,0,1,70,22m0-1a48.5,48.5,0,1,0,48.5,48.5A48.49,48.49,0,0,0,70,21Z" transform="translate(-0.5)"/></svg>