<svg id="Capa_1" enable-background="new 0 0 512 512" height="512" viewBox="0 0 512 512" width="512" xmlns="http://www.w3.org/2000/svg"><g><path d="m237.528 223.947c-24.225-8.374-48.807-12.947-71.528-12.947-24.813 0-45 20.187-45 45s20.187 45 45 45c31.586 0 56.531-18.875 79.43-41.873 55.747 24.366 103.57 70.165 103.57 117.873 0 57.897-47.103 105-105 105-44.664 0-81-36.336-81.001-81 0-34.077 27.724-61.8 61.8-61.8 25.607 0 46.44 20.833 46.44 46.44 0 18.831-15.321 34.152-34.152 34.152-13.411 0-24.322-10.911-24.322-24.322 0-8.284-6.716-15-15-15s-15 6.716-15 15c0 29.953 24.369 54.322 54.322 54.322 35.374 0 64.152-28.778 64.152-64.152 0-42.149-34.292-76.44-76.44-76.44-50.619 0-91.8 41.181-91.8 91.8 0 61.206 49.795 111 111.001 111 74.439 0 135-60.561 135-135 0-62.579-55.185-113.448-111.945-140.862.005-.006.01-.011.016-.017 7.132-7.801 14.154-15.479 21.183-22.516 20.676 16.13 40.159 27.395 57.746 27.395 24.813 0 45-20.187 45-45s-20.187-45-45-45c-22.261 0-41.223 9.376-58.495 22.961-13.022-11.31-25.784-23.143-39.091-34.877 17.403-26.609 22.586-61.155 22.586-93.084v-31c0-8.284-6.716-15-15-15s-15 6.716-15 15v31c0 30.552-5.464 55.926-15.788 73.545-21.221-16.743-41.21-28.545-59.212-28.545-24.813 0-45 20.187-45 45s20.187 45 45 45c24.582 0 45.615-6.737 62.201-19.722 12.345 10.846 24.396 21.991 36.958 33.021-9.47 9.613-18.561 19.827-27.631 29.648zm-71.528 47.053c-8.271 0-15-6.729-15-15s6.729-15 15-15c15.365 0 31.588 2.447 47.77 6.884-15.259 13.642-30.796 23.116-47.77 23.116zm180-90c8.271 0 15 6.729 15 15s-6.729 15-15 15c-8.494 0-20.889-7.203-34.552-17.452 11.067-7.716 22.444-12.548 34.552-12.548zm-180-30c-8.271 0-15-6.729-15-15s6.729-15 15-15c9.289 0 23.242 8.609 38.419 20.405-10.443 6.429-23.183 9.595-38.419 9.595z"/></g></svg>